ply
format ascii 1.0
element vertex 13
property float x
property float y
property float z
property float nx
property float ny
property float nz
end_header
-1.20054483413696289 -0.126606062054634094 -0.562927126884460449 -0.562927126884460449 -0.562927126884460449 -0.562927126884460449
-6.7655024528503418 -0.6705169677734375 -2.41848039627075195 -0.562927126884460449 -0.562927126884460449 -0.562927126884460449
-8.51391696929931641 -0.860308527946472168 -2.46055102348327637 -0.562927126884460449 -0.562927126884460449 -0.562927126884460449
-10.2023420333862305 -0.944646716117858887 -2.47214055061340332 -0.562927126884460449 -0.562927126884460449 -0.562927126884460449
-11.7283039093017578 -1.33212459087371826 -2.45346212387084961 -0.562927126884460449 -0.562927126884460449 -0.562927126884460449
-13.5856266021728516 -1.36800062656402588 -2.49274134635925293 -0.562927126884460449 -0.562927126884460449 -0.562927126884460449
-15.522038459777832 -1.69719815254211426 -2.54130864143371582 -0.562927126884460449 -0.562927126884460449 -0.562927126884460449
-17.2934894561767578 -1.66822004318237305 -2.55066585540771484 -0.562927126884460449 -0.562927126884460449 -0.562927126884460449
-18.9531650543212891 -1.98536908626556396 -2.55966305732727051 -0.562927126884460449 -0.562927126884460449 -0.562927126884460449
-20.6618518829345703 -2.02955317497253418 -2.6043553352355957 -0.562927126884460449 -0.562927126884460449 -0.562927126884460449
-21.4575843811035156 -2.14931654930114746 -2.59055304527282715 -0.562927126884460449 -0.562927126884460449 -0.562927126884460449
-21.5034942626953125 -1.97210896015167236 -2.51757025718688965 -0.562927126884460449 -0.562927126884460449 -0.562927126884460449
-22.112060546875 -2.4919891357421875 -2.53529047966003418 -0.562927126884460449 -0.562927126884460449 -0.562927126884460449